<svg width="685" height="156" viewBox="0 0 685 156" fill="none" xmlns="http://www.w3.org/2000/svg">
<path d="M267.161 152.021C261.734 152.021 256.745 151.052 252.188 149.12C247.729 147.188 244.094 144.042 241.286 139.693C238.568 135.339 237.214 129.536 237.214 122.286C237.214 121.125 237.313 119.865 237.505 118.51C237.698 117.161 238.036 115.854 238.521 114.594L250.005 113.724C249.719 115.078 249.474 116.339 249.281 117.495C249.089 118.563 248.99 119.578 248.99 120.542C248.99 125.573 249.813 129.344 251.464 131.859C253.208 134.37 255.438 136.063 258.151 136.932C260.958 137.807 264.016 138.24 267.307 138.24C271.089 138.24 274.432 137.755 277.339 136.792C280.344 135.823 282.766 134.568 284.609 133.021L288.391 145.641C286.063 147.667 282.818 149.219 278.651 150.281C274.578 151.443 270.75 152.021 267.161 152.021ZM243.464 26.1094C252.771 26.1094 260.813 28.0937 267.599 32.0573C274.385 36.026 279.62 41.6823 283.302 49.0313C286.984 56.3802 288.828 65.1823 288.828 75.4323C288.828 85.6823 286.984 94.4792 283.302 101.833C279.62 109.182 274.385 114.839 267.599 118.802C260.813 122.766 252.771 124.75 243.464 124.75C234.255 124.75 226.26 122.766 219.474 118.802C212.693 114.839 207.458 109.182 203.776 101.833C200.089 94.4792 198.25 85.6823 198.25 75.4323C198.25 65.1823 200.089 56.3802 203.776 49.0313C207.458 41.6823 212.693 36.026 219.474 32.0573C226.26 28.0937 234.255 26.1094 243.464 26.1094ZM243.464 39.6042C237.453 39.6042 232.271 41.0052 227.906 43.8073C223.646 46.6146 220.349 50.6719 218.021 55.9948C215.698 61.3125 214.531 67.7917 214.531 75.4323C214.531 82.974 215.698 89.4531 218.021 94.8698C220.349 100.188 223.646 104.25 227.906 107.052C232.271 109.859 237.453 111.26 243.464 111.26C249.573 111.26 254.755 109.859 259.021 107.052C263.385 104.25 266.729 100.188 269.052 94.8698C271.38 89.4531 272.542 82.974 272.542 75.4323C272.542 67.7917 271.38 61.3125 269.052 55.9948C266.729 50.6719 263.385 46.6146 259.021 43.8073C254.755 41.0052 249.573 39.6042 243.464 39.6042ZM335.656 124.75C330.911 124.75 326.5 123.88 322.427 122.141C318.453 120.396 315.255 117.594 312.833 113.724C310.411 109.859 309.198 104.828 309.198 98.6406V50.7708H324.755V94.724C324.755 101.297 326.161 105.844 328.969 108.359C331.781 110.776 335.708 111.984 340.745 111.984C343.172 111.984 345.495 111.599 347.724 110.823C350.052 109.953 352.135 108.651 353.979 106.906C355.818 105.073 357.224 102.75 358.193 99.9479C359.26 97.1406 359.792 93.8542 359.792 90.0833V50.7708H375.349V123.302H361.682L360.958 111.552C358.438 116.094 355.042 119.432 350.781 121.557C346.516 123.688 341.474 124.75 335.656 124.75ZM441.672 76.7344C441.672 71.901 440.313 68.1771 437.599 65.5677C434.984 62.8594 431.349 61.5052 426.693 61.5052C422.333 61.5052 418.604 62.5208 415.5 64.5521C412.401 66.5833 410.12 69.8698 408.667 74.4167L395.583 68.901C397.422 63.0052 401.01 58.2656 406.339 54.6875C411.771 51.1094 418.75 49.3229 427.276 49.3229C433.094 49.3229 438.229 50.2865 442.688 52.224C447.146 54.0573 450.635 56.8646 453.156 60.6354C455.771 64.4063 457.083 69.2396 457.083 75.1406V107.49C457.083 111.068 458.875 112.854 462.458 112.854C464.203 112.854 465.901 112.615 467.547 112.13L466.677 122.865C464.448 123.927 461.641 124.458 458.245 124.458C455.146 124.458 452.333 123.927 449.813 122.865C447.391 121.703 445.448 120.01 443.995 117.786C442.641 115.469 441.958 112.615 441.958 109.229V108.214L445.161 108.068C444.286 111.839 442.495 114.984 439.781 117.495C437.068 119.917 433.917 121.75 430.328 123.01C426.745 124.172 423.109 124.75 419.427 124.75C414.87 124.75 410.755 124.026 407.068 122.573C403.484 121.125 400.625 118.948 398.49 116.047C396.453 113.047 395.438 109.375 395.438 105.021C395.438 99.6094 397.182 95.1563 400.672 91.6771C404.255 88.1979 409.297 85.8281 415.792 84.5677L443.995 79.0573L443.849 89.9375L423.349 94.1406C419.281 94.9167 416.229 96.0313 414.193 97.4792C412.156 98.9323 411.141 101.057 411.141 103.859C411.141 106.568 412.156 108.745 414.193 110.391C416.323 111.938 419.135 112.708 422.625 112.708C425.047 112.708 427.375 112.422 429.604 111.839C431.927 111.26 434.016 110.344 435.854 109.083C437.698 107.729 439.104 106.036 440.073 104.005C441.141 101.88 441.672 99.3646 441.672 96.4635V76.7344ZM541.995 50.7708L510.156 131.859C508.021 137.469 505.698 141.917 503.177 145.203C500.75 148.49 497.943 150.859 494.745 152.313C491.547 153.76 487.813 154.484 483.547 154.484C480.057 154.484 476.813 154.005 473.807 153.036C470.901 152.167 468.328 150.958 466.104 149.411L469.88 137.37C471.724 138.917 473.661 140.078 475.698 140.849C477.828 141.625 480.109 142.01 482.531 142.01C485.146 142.01 487.474 141.286 489.51 139.839C491.641 138.484 493.531 135.724 495.182 131.568L498.38 123.734L490.672 105.75L467.995 50.7708H485.438L501.578 96.3177L505.792 109.953L510.594 95.0156L525.859 50.7708H541.995ZM586.828 124.75C579.557 124.75 573.161 123.25 567.635 120.255C562.109 117.255 557.797 112.953 554.693 107.344C551.688 101.635 550.188 94.8698 550.188 87.0365C550.188 79.2031 551.688 72.4792 554.693 66.875C557.797 61.1667 562.057 56.8177 567.49 53.8177C572.917 50.8177 579.068 49.3229 585.953 49.3229C593.026 49.3229 599.036 50.7708 603.984 53.6719C608.927 56.5729 612.703 60.5365 615.323 65.5677C617.938 70.5938 619.25 76.3021 619.25 82.6823C619.25 84.4219 619.198 86.0677 619.104 87.6146C619.005 89.1615 618.859 90.5156 618.667 91.6771H560.219V79.7813H611.833L604.125 82.1042C604.125 75.526 602.479 70.5 599.182 67.0156C595.885 63.4375 591.38 61.651 585.661 61.651C581.495 61.651 577.859 62.6198 574.76 64.5521C571.656 66.4844 569.281 69.3854 567.635 73.2552C565.984 77.026 565.161 81.6667 565.161 87.1823C565.161 92.5938 566.036 97.1875 567.781 100.958C569.526 104.734 571.995 107.583 575.193 109.521C578.396 111.453 582.172 112.422 586.536 112.422C591.38 112.422 595.307 111.5 598.313 109.667C601.313 107.828 603.693 105.266 605.438 101.974L617.792 107.776C616.047 111.26 613.672 114.307 610.672 116.917C607.76 119.432 604.271 121.365 600.203 122.719C596.13 124.073 591.672 124.75 586.828 124.75ZM638.896 123.302V50.7708H652.125L653.578 63.8281C655.516 59.0885 658.375 55.5104 662.156 53.0938C666.031 50.5781 670.781 49.3229 676.401 49.3229C677.859 49.3229 679.313 49.4635 680.766 49.7552C682.219 49.9479 683.427 50.2865 684.401 50.7708L682.219 64.4063C681.151 64.0208 679.943 63.7292 678.583 63.5365C677.323 63.2448 675.578 63.099 673.349 63.099C670.344 63.099 667.391 63.9219 664.479 65.5677C661.573 67.1146 659.151 69.4844 657.214 72.6771C655.37 75.8646 654.448 79.9271 654.448 84.8594V123.302H638.896Z" fill="#FCFCFC"/>
<mask id="mask0_2013_19" style="mask-type:luminance" maskUnits="userSpaceOnUse" x="0" y="0" width="181" height="156">
<path d="M0 0H180.797V155.938H0V0Z" fill="white"/>
</mask>
<g mask="url(#mask0_2013_19)">
<path d="M58.5312 3.63025H83.9739C85.7604 3.63025 87.5416 3.71358 89.3177 3.89066C91.0937 4.06254 92.8593 4.32295 94.6093 4.67191C96.3593 5.02087 98.0937 5.45316 99.802 5.96879C101.51 6.48962 103.187 7.08858 104.838 7.77087C106.49 8.44796 108.099 9.21358 109.672 10.0522C111.25 10.8907 112.781 11.8074 114.266 12.797C115.75 13.7865 117.182 14.8438 118.562 15.974C119.943 17.1042 121.26 18.3022 122.526 19.5626C123.786 20.8178 124.984 22.1407 126.12 23.5157C127.25 24.8907 128.312 26.323 129.307 27.8022C130.297 29.2865 131.214 30.8126 132.057 32.3803C132.896 33.9532 133.661 35.5626 134.344 37.2084C135.026 38.8543 135.63 40.5313 136.146 42.2345C136.667 43.9376 137.099 45.6667 137.448 47.4115C137.797 49.1615 138.057 50.922 138.229 52.6928C138.406 54.4636 138.495 56.2449 138.495 58.0261V90.6615C138.495 92.4428 138.406 94.2188 138.229 95.9949C138.057 97.7657 137.797 99.5261 137.448 101.276C137.099 103.021 136.667 104.745 136.146 106.453C135.63 108.156 135.026 109.833 134.344 111.479C133.661 113.125 132.896 114.734 132.057 116.302C131.214 117.875 130.297 119.401 129.307 120.88C128.312 122.365 127.25 123.792 126.12 125.172C124.984 126.547 123.786 127.865 122.526 129.125C121.26 130.385 119.943 131.578 118.562 132.708C117.182 133.839 115.75 134.901 114.266 135.891C112.781 136.88 111.25 137.797 109.672 138.635C108.099 139.474 106.49 140.234 104.838 140.917C103.187 141.599 101.51 142.198 99.802 142.714C98.0937 143.234 96.3593 143.667 94.6093 144.01C92.8593 144.359 91.0937 144.62 89.3177 144.797C87.5416 144.969 85.7604 145.057 83.9739 145.057H58.5312C56.7448 145.057 54.9635 144.969 53.1875 144.797C51.4114 144.62 49.6458 144.359 47.8958 144.01C46.1406 143.667 44.4114 143.234 42.7031 142.714C40.9947 142.198 39.3177 141.599 37.6666 140.917C36.0156 140.234 34.4062 139.474 32.8281 138.635C31.2552 137.797 29.7239 136.88 28.2395 135.891C26.7552 134.901 25.3229 133.839 23.9427 132.708C22.5625 131.578 21.2395 130.385 19.9791 129.125C18.7135 127.865 17.5156 126.547 16.3854 125.172C15.25 123.792 14.1875 122.365 13.1979 120.88C12.2083 119.401 11.2916 117.875 10.4479 116.302C9.60412 114.734 8.84371 113.125 8.16142 111.479C7.47392 109.833 6.87496 108.156 6.35933 106.453C5.8385 104.745 5.40621 103.021 5.05725 101.276C4.70829 99.5261 4.44788 97.7657 4.27079 95.9949C4.09892 94.2188 4.01038 92.4428 4.01038 90.6615V58.0261C4.01038 56.2449 4.09892 54.4636 4.27079 52.6928C4.44788 50.922 4.70829 49.1615 5.05725 47.4115C5.40621 45.6667 5.8385 43.9376 6.35933 42.2345C6.87496 40.5313 7.47392 38.8543 8.16142 37.2084C8.84371 35.5626 9.60412 33.9532 10.4479 32.3803C11.2916 30.8126 12.2083 29.2865 13.1979 27.8022C14.1875 26.323 15.25 24.8907 16.3854 23.5157C17.5156 22.1407 18.7135 20.8178 19.9791 19.5626C21.2395 18.3022 22.5625 17.1042 23.9427 15.974C25.3229 14.8438 26.7552 13.7865 28.2395 12.797C29.7239 11.8074 31.2552 10.8907 32.8281 10.0522C34.4062 9.21358 36.0156 8.44796 37.6666 7.77087C39.3177 7.08858 40.9947 6.48962 42.7031 5.96879C44.4114 5.45316 46.1406 5.02087 47.8958 4.67191C49.6458 4.32295 51.4114 4.06254 53.1875 3.89066C54.9635 3.71358 56.7448 3.63025 58.5312 3.63025Z" stroke="#FCFCFC" stroke-width="7.26113"/>
</g>
<path fill-rule="evenodd" clip-rule="evenodd" d="M49.4998 33.4427C38.2446 40 33.0884 52.7448 33.0884 74C33.0884 95.1719 38.2342 107.927 49.4998 114.682C63.5155 123.083 100.521 120.151 89.3488 111.292C86.703 109.193 84.9634 106.104 81.0259 108.115C75.0415 111.182 59.63 109.656 54.3592 105.474C52.3175 103.859 49.1821 99.1823 47.3853 95.0834C43.2811 85.6979 46.2394 83.2552 59.3957 85.1615C73.729 87.2396 87.7186 96.1667 95.578 108.25C100.729 116.177 103.984 119 107.963 119C114.469 119 114.614 117.698 109.088 109.031C105.453 103.333 104.989 99.1302 105.937 80.3334C106.896 61.4011 106.385 56.8802 102.323 48.1042C96.104 34.6667 86.453 29.0104 69.729 29.0104C61.104 29.0104 54.6925 30.4167 49.4998 33.4427ZM83.2394 41.3594C91.005 46.5573 94.9894 57.599 94.9894 73.9271C94.9894 81.8125 94.5728 88.2656 94.0519 88.2656C93.5415 88.2656 88.0311 85.7396 81.8071 82.6563C75.5884 79.5729 64.6457 76.474 57.4842 75.7656C44.4842 74.4844 44.4686 74.474 44.4686 67.0365C44.4686 57.0834 49.6561 45.7552 56.2186 41.3594C63.078 36.7656 76.38 36.7656 83.2394 41.3594Z" fill="#FCFCFC"/>
</svg>
